# xmcd CD database file
#
# Track frame offsets:
#	150
#	33350
#	47466
#	63659
#	92871
#	111516
#	132705
#	153506
#	166261
#	181645
#	194392
#	222480
#
# Disc length: 3397 seconds
#
# Revision: 0
# Processed by: cddbd v1.5.1PL0 Copyright (c) Steve Scherf et al.
# Submitted via: CDex 1.51
#
DISCID=ad0d430c
DTITLE=ぶらは堂本舗 - BEATING SURVIVER -cyber arrangement from "beatmania"-
DYEAR=1900
DGENRE=未分類 (日本)
TTITLE0=SKYSCAPER - foot-shool
TTITLE1=Marmalade Gang - Anal Offset
TTITLE2=CHAIN.4 - ROM
TTITLE3=SAFARIPARK
TTITLE4=Acid the Monky - PC FX
TTITLE5=Distrucktor - PWM
TTITLE6=NORTH -digit mix- - BAMBOO 4
TTITLE7=CRIMSCAPER - R.A.M LIGHT-G
TTITLE8=Schwarzwork - tAt
TTITLE9=321 Stars -Sunny mousse mix- - DJ Saipan
TTITLE10=MINeD-CYCLE - ほのぼのSlaKe
TTITLE11=Infinitia -5noodle731 edit- - BLACKHEART
EXTD=
EXTT0=
EXTT1=
EXTT2=
EXTT3=
EXTT4=
EXTT5=
EXTT6=
EXTT7=
EXTT8=
EXTT9=
EXTT10=
EXTT11=
PLAYORDER=
